<?xml version="1.0" encoding="iso-8859-1"?>
<!-- Uploaded to: SVG Repo, www.svgrepo.com, Generator: SVG Repo Mixer Tools -->
<svg version="1.1" id="Layer_1" xmlns="http://www.w3.org/2000/svg" xmlns:xlink="http://www.w3.org/1999/xlink" 
	 viewBox="0 0 512 512" xml:space="preserve">
<path style="fill:#E0DDDF;" d="M384.072,222.904l-41.976-41.976c-3.106-3.104-8.139-3.104-11.244,0L216.919,294.863
	c-3.105,3.106-3.105,8.139,0,11.244l41.976,41.975c1.553,1.552,3.588,2.328,5.622,2.328s4.069-0.776,5.622-2.328l113.933-113.933
	C387.177,231.043,387.177,226.01,384.072,222.904z"/>
<path style="fill:#C1BCBF;" d="M384.072,222.904l-5.352-5.352l0,0l-36.623-36.623c-3.106-3.104-8.139-3.104-11.244,0l-8.974,8.974
	l36.623,36.623c3.105,3.105,3.105,8.139,0,11.244l-104.96,104.96l5.352,5.352c1.553,1.552,3.588,2.328,5.622,2.328
	s4.07-0.776,5.622-2.328l104.96-104.96l0,0l8.974-8.974C387.177,231.044,387.177,226.009,384.072,222.904z"/>
<path style="fill:#E0DDDF;" d="M387.445,245.472c-2.034,0-4.069-0.776-5.622-2.328l-59.964-59.964
	c-3.105-3.106-3.105-8.139,0-11.244c3.106-3.104,8.139-3.104,11.245,0l59.964,59.964c3.105,3.106,3.105,8.139,0,11.244
	C391.515,244.696,389.479,245.472,387.445,245.472z"/>
<rect x="343.141" y="192.687" transform="matrix(-0.7071 0.7071 -0.7071 -0.7071 741.6091 95.1826)" style="fill:#F9F8F9;" width="15.9" height="16.992"/>
<path style="fill:#E0DDDF;" d="M221.549,233.811V58.832c0-4.392-3.559-7.95-7.95-7.95h-84.803c-4.392,0-7.95,3.559-7.95,7.95
	v174.979c-56.033,20.925-93.284,74.281-93.284,134.553C27.561,447.565,91.996,512,171.197,512s143.636-64.435,143.636-143.636
	C314.832,308.094,277.581,254.738,221.549,233.811z"/>
<path style="fill:#9FD25A;" d="M200.878,0h-59.362c-4.392,0-7.95,3.559-7.95,7.95v50.882c0,4.392,3.559,7.95,7.95,7.95h59.362
	c4.392,0,7.95-3.559,7.95-7.95V7.95C208.828,3.559,205.27,0,200.878,0z"/>
<path style="fill:#6EAD32;" d="M148.936,58.832V7.95c0-4.392,3.559-7.95,7.95-7.95h-15.371c-4.392,0-7.95,3.559-7.95,7.95v50.882
	c0,4.392,3.559,7.95,7.95,7.95h15.371C152.494,66.783,148.936,63.224,148.936,58.832z"/>
<path style="fill:#C1BCBF;" d="M213.598,50.882h-84.803c-4.391,0-7.95,3.56-7.95,7.95v22.261v152.718
	c-56.033,20.925-93.284,74.281-93.284,134.553c0,72.827,54.483,133.163,124.829,142.404c-52.91-21.2-90.378-73.001-90.378-133.393
	c0-50.307,25.953-95.796,67.119-121.63c0.845-0.53,1.826-0.805,2.823-0.805h51.963c4.391,0,7.95-3.56,7.95-7.95v-5.3
	c0-4.391-3.56-7.95-7.95-7.95h-23.321c-2.927,0-5.3-2.373-5.3-5.3V89.043c0-4.391,3.56-7.95,7.95-7.95h58.302V59.892v-1.06
	C221.549,54.442,217.989,50.882,213.598,50.882z"/>
<path style="fill:#FF675C;" d="M33.328,327.971c-3.827,13.077-5.767,26.669-5.767,40.393C27.561,447.565,91.996,512,171.197,512
	s143.636-64.435,143.636-143.636c0-13.724-1.94-27.316-5.767-40.393H33.328z"/>
<path style="fill:#DB3D5A;" d="M62.012,377.375c0-17.234,3.057-33.897,8.717-49.403H33.328c-3.827,13.077-5.767,26.669-5.767,40.393
	c0,72.827,54.483,133.163,124.829,142.404C99.481,489.568,62.012,437.767,62.012,377.375z"/>
<path style="fill:#E0DDDF;" d="M230.559,66.783H111.834c-4.392,0-7.95-3.559-7.95-7.95s3.559-7.95,7.95-7.95h118.725
	c4.392,0,7.95,3.559,7.95,7.95S234.951,66.783,230.559,66.783z"/>
<rect x="174.377" y="50.882" style="fill:#F9F8F9;" width="28.268" height="15.901"/>
<g>
	<path style="fill:#DB3D5A;" d="M122.965,420.306c-16.073,0-29.151-13.078-29.151-29.151c0-16.073,13.078-29.151,29.151-29.151
		s29.151,13.078,29.151,29.151C152.116,407.229,139.038,420.306,122.965,420.306z"/>
	<path style="fill:#DB3D5A;" d="M179.147,471.188c-16.073,0-29.151-13.078-29.151-29.151c0-16.073,13.078-29.151,29.151-29.151
		s29.151,13.078,29.151,29.151C208.298,458.111,195.22,471.188,179.147,471.188z"/>
	<path style="fill:#DB3D5A;" d="M228.969,420.306c-16.073,0-29.151-13.078-29.151-29.151c0-16.073,13.078-29.151,29.151-29.151
		s29.151,13.078,29.151,29.151C258.12,407.229,245.042,420.306,228.969,420.306z"/>
</g>
<path style="fill:#F9F8F9;" d="M283.561,325.433c0-15.514-12.577-28.091-28.091-28.091s-28.091,12.577-28.091,28.091
	c0,0.857,0.045,1.701,0.12,2.538h55.943C283.517,327.134,283.561,326.289,283.561,325.433z"/>
<path style="fill:#FFB3AD;" d="M255.47,353.524c14.658,0,26.688-11.229,27.971-25.553h-55.943
	C228.782,342.295,240.812,353.524,255.47,353.524z"/>
<circle style="fill:#F9F8F9;" cx="218.899" cy="276.141" r="15.901"/>
<path style="fill:#FFB3AD;" d="M370.484,155.826c-23.088,0-41.872-18.784-41.872-41.872s18.784-41.872,41.872-41.872
	c23.088,0,41.872,18.784,41.872,41.872S393.572,155.826,370.484,155.826z"/>
<path style="fill:#FF675C;" d="M387.445,138.865c-23.088,0-41.872-18.784-41.872-41.872c0-7.19,1.823-13.963,5.03-19.881
	c-13.084,7.09-21.991,20.944-21.991,36.842c0,23.088,18.784,41.872,41.872,41.872c15.897,0,29.752-8.906,36.842-21.991
	C401.408,137.042,394.635,138.865,387.445,138.865z"/>
<path style="fill:#FFB3AD;" d="M448.928,232.149c-17.244,0-31.271-14.028-31.271-31.271s14.028-31.271,31.271-31.271
	c17.244,0,31.271,14.028,31.271,31.271S466.171,232.149,448.928,232.149z"/>
<path style="fill:#FF675C;" d="M461.118,219.959c-17.244,0-31.271-14.028-31.271-31.271c0-5.495,1.429-10.66,3.928-15.152
	c-9.604,5.344-16.119,15.594-16.119,27.343c0,17.244,14.028,31.271,31.271,31.271c11.748,0,21.999-6.515,27.343-16.119
	C471.778,218.53,466.613,219.959,461.118,219.959z"/>
<path style="fill:#FFB3AD;" d="M453.168,83.743c-17.244,0-31.271-14.028-31.271-31.271s14.028-31.271,31.271-31.271
	c17.244,0,31.271,14.028,31.271,31.271S470.411,83.743,453.168,83.743z"/>
<path style="fill:#FF675C;" d="M466.948,69.963c-17.244,0-31.271-14.028-31.271-31.271c0-5.077,1.223-9.869,3.379-14.112
	c-10.171,5.167-17.16,15.726-17.16,27.893c0,17.244,14.028,31.271,31.271,31.271c12.167,0,22.725-6.989,27.893-17.159
	C476.817,68.739,472.025,69.963,466.948,69.963z"/>
</svg>